# xmcd
#
# Track frame offsets: 
#        150
#        11790
#        28179
#        40587
#        53544
#        66993
#        80591
#        95849
#        111173
#        123685
#
# Disc length: 1865 seconds
#
# Revision: 0
# Processed by: cddbd v1.4PL0 Copyright (c) Steve Scherf et al.
# Submitted via: ExactAudioCopy v0.90b4
#
DISCID=8707470a
DTITLE=Barry White - Fragile
DYEAR=1994
DGENRE=Soul
TTITLE0=Where Can I Turn To (Instrumental)
TTITLE1=Long Black Evil (Instrumental)
TTITLE2=All In The Run Of Love
TTITLE3=Fragile - Handle With Care (Instrumental)
TTITLE4=My Buddy
TTITLE5=Under The Influence Of Love (Instrumental)
TTITLE6=Your Heart And Soul
TTITLE7=Come On And Soul
TTITLE8=Big Man
TTITLE9=Long Black Evil (Reprise)
EXTD=
EXTT0=
EXTT1=
EXTT2=
EXTT3=
EXTT4=
EXTT5=
EXTT6=
EXTT7=
EXTT8=
EXTT9=
PLAYORDER=
